# xmcd
#
# Track frame offsets:
#	150
#	4733
#	14670
#	26590
#	38680
#	48770
#	58710
#	70650
#	83070
#	93270
#	103300
#	113868
#	124460
#	135150
#	146258
#	156963
#	166455
#	176835
#	189883
#	202465
#	211640
#	223675
#	229136
#
# Disc length: 3269 seconds
#
# Revision: 1
# Processed by: cddbd v1.5.2PL0 Copyright (c) Steve Scherf et al.
# Submitted via: audiograbber 1.83.01
#
DISCID=400cc317
DTITLE=Tom Astor and His Friends - Country - Party
DYEAR=1900
DGENRE=Country
TTITLE0=Orange Blossom Special
TTITLE1=Deep In The heart Of Texas
TTITLE2=Jackson
TTITLE3=Oh, Lonesome Me
TTITLE4=Bonanza
TTITLE5=Von den blauen Bergen kommen wir
TTITLE6=Blue Bayou
TTITLE7=On Top Of Old Smokey
TTITLE8=Some Broken Heart Never Mend
TTITLE9=San Antonio Rose
TTITLE10=7.000 Rinder
TTITLE11=Auf meiner Ranch bin ich König (El Rancho Grande)
TTITLE12=Geisterreiter (Ghost Riders In The Sky)
TTITLE13=Ring Of Fire
TTITLE14=El Paso
TTITLE15=Adios Amigo
TTITLE16=Tennessee Waltz
TTITLE17=Green, Green Grass Of Home
TTITLE18=Tom Dooley
TTITLE19=The Yellow Rose Of Texas
TTITLE20=Take Me Home Countra Roads
TTITLE21=Orange Blossom Special
TTITLE22=Junger Adler (Bonus Track)
EXTD=
EXTT0=
EXTT1=
EXTT2=
EXTT3=
EXTT4=
EXTT5=
EXTT6=
EXTT7=
EXTT8=
EXTT9=
EXTT10=
EXTT11=
EXTT12=
EXTT13=
EXTT14=
EXTT15=
EXTT16=
EXTT17=
EXTT18=
EXTT19=
EXTT20=
EXTT21=
EXTT22=
PLAYORDER=
